<?xml version="1.0" standalone="no"?>
<!DOCTYPE svg PUBLIC "-//W3C//DTD SVG 20010904//EN"
 "http://www.w3.org/TR/2001/REC-SVG-20010904/DTD/svg10.dtd">
<svg version="1.0" xmlns="http://www.w3.org/2000/svg"
 width="36.000000pt" height="36.000000pt" viewBox="0 0 36.000000 36.000000"
 preserveAspectRatio="xMidYMid meet">

<g transform="translate(0.000000,36.000000) scale(0.100000,-0.100000)"
fill="#000000" stroke="none">
<path d="M128 290 c-47 -47 -48 -49 -48 -110 0 -62 0 -62 52 -111 29 -27 54
-49 55 -49 2 0 3 72 3 160 0 88 -3 159 -7 158 -5 -1 -29 -22 -55 -48z"/>
<path d="M300 295 c0 -6 9 -28 20 -50 11 -22 20 -51 20 -65 0 -14 -9 -43 -20
-65 -27 -53 -25 -66 5 -32 28 32 40 82 31 132 -6 33 -55 102 -56 80z"/>
<path d="M0 180 l0 -70 30 0 30 0 0 70 0 70 -30 0 -30 0 0 -70z"/>
<path d="M250 247 c0 -2 7 -18 16 -35 14 -29 14 -35 0 -64 -18 -35 -14 -47 8
-29 22 19 29 67 14 97 -11 23 -38 45 -38 31z"/>
<path d="M210 180 c0 -18 4 -29 10 -25 6 3 10 15 10 25 0 10 -4 22 -10 25 -6
4 -10 -7 -10 -25z"/>
</g>
</svg>
