<?xml version="1.0" standalone="no"?>
<!DOCTYPE svg PUBLIC "-//W3C//DTD SVG 20010904//EN"
 "http://www.w3.org/TR/2001/REC-SVG-20010904/DTD/svg10.dtd">
<svg version="1.0" xmlns="http://www.w3.org/2000/svg"
 width="403.000000pt" height="569.000000pt" viewBox="0 0 403.000000 569.000000"
 preserveAspectRatio="xMidYMid meet">

<g transform="translate(0.000000,569.000000) scale(0.100000,-0.100000)"
fill="#000000" stroke="none">
<path d="M1505 4224 c-108 -45 -200 -155 -232 -279 -48 -188 68 -405 254 -475
72 -27 196 -33 272 -14 144 37 249 164 273 333 10 66 9 88 -5 146 -30 121
-121 229 -240 285 -56 27 -72 30 -162 30 -83 -1 -110 -5 -160 -26z"/>
<path d="M1415 3342 c-60 -29 -112 -77 -140 -131 -26 -52 -32 -106 -24 -207 7
-86 18 -242 59 -834 9 -135 24 -196 64 -264 36 -62 117 -131 184 -157 56 -22
63 -22 538 -20 l481 3 21 -29 c11 -15 122 -230 247 -478 126 -247 239 -465
252 -483 33 -44 97 -76 140 -69 18 3 133 55 256 115 257 125 272 138 272 233
0 45 -5 62 -27 91 -63 83 -150 88 -290 18 -47 -23 -92 -40 -100 -38 -7 3 -53
91 -103 194 -49 104 -121 257 -161 339 -39 83 -106 224 -149 315 -92 193 -105
213 -165 248 l-45 27 -315 -5 c-522 -7 -497 -8 -520 15 -18 19 -21 48 -40 350
-33 538 -35 556 -63 618 -52 115 -116 158 -252 171 -52 5 -68 3 -120 -22z"/>
<path d="M1045 2898 c-78 -40 -261 -167 -332 -230 -184 -161 -333 -386 -412
-623 -55 -166 -65 -239 -66 -470 0 -188 3 -220 24 -305 55 -222 145 -402 290
-583 191 -236 505 -417 817 -472 113 -20 316 -19 435 1 118 20 260 65 366 115
257 122 506 365 632 616 17 34 31 68 31 75 0 21 -174 327 -189 333 -22 8 -38
-19 -51 -82 -15 -72 -82 -222 -136 -303 -187 -285 -516 -460 -864 -460 -475 0
-883 313 -1022 783 -26 87 -31 124 -35 252 -8 215 22 355 115 540 84 169 232
332 411 454 l93 64 -7 141 c-4 77 -11 149 -16 159 -12 22 -35 21 -84 -5z"/>
</g>
</svg>
